<?xml version="1.0" encoding="UTF-8" standalone="no"?>
<!-- Created with Inkscape (http://www.inkscape.org/) -->

<svg
   xmlns:dc="http://purl.org/dc/elements/1.1/"
   xmlns:cc="http://creativecommons.org/ns#"
   xmlns:rdf="http://www.w3.org/1999/02/22-rdf-syntax-ns#"
   xmlns:svg="http://www.w3.org/2000/svg"
   xmlns="http://www.w3.org/2000/svg"
   xmlns:xlink="http://www.w3.org/1999/xlink"
   xmlns:sodipodi="http://sodipodi.sourceforge.net/DTD/sodipodi-0.dtd"
   xmlns:inkscape="http://www.inkscape.org/namespaces/inkscape"
   width="6.3499999mm"
   height="6.3499999mm"
   viewBox="0 0 6.3499999 6.3499999"
   version="1.1"
   id="svg8"
   inkscape:version="0.92.4 (5da689c313, 2019-01-14)"
   sodipodi:docname="linkedin_gradient.svg">
  <defs
     id="defs2">
    <linearGradient
       id="linearGradient4533"
       inkscape:collect="always">
      <stop
         id="stop4529"
         offset="0"
         style="stop-color:#872fcc;stop-opacity:1" />
      <stop
         id="stop4531"
         offset="1"
         style="stop-color:#ee0979;stop-opacity:1" />
    </linearGradient>
    <linearGradient
       gradientUnits="userSpaceOnUse"
       y2="169.31491"
       x2="175.86523"
       y1="162.972"
       x1="175.86523"
       id="linearGradient4535"
       xlink:href="#linearGradient4533"
       inkscape:collect="always" />
  </defs>
  <sodipodi:namedview
     id="base"
     pagecolor="#ffffff"
     bordercolor="#666666"
     borderopacity="1.0"
     inkscape:pageopacity="0.0"
     inkscape:pageshadow="2"
     inkscape:zoom="22.4"
     inkscape:cx="4.6345556"
     inkscape:cy="12.762825"
     inkscape:document-units="mm"
     inkscape:current-layer="layer1"
     showgrid="false"
     fit-margin-top="0"
     fit-margin-left="0"
     fit-margin-right="0"
     fit-margin-bottom="0"
     inkscape:window-width="1920"
     inkscape:window-height="1017"
     inkscape:window-x="2552"
     inkscape:window-y="-8"
     inkscape:window-maximized="1" />
  <metadata
     id="metadata5">
    <rdf:RDF>
      <cc:Work
         rdf:about="">
        <dc:format>image/svg+xml</dc:format>
        <dc:type
           rdf:resource="http://purl.org/dc/dcmitype/StillImage" />
        <dc:title></dc:title>
      </cc:Work>
    </rdf:RDF>
  </metadata>
  <g
     inkscape:label="Layer 1"
     inkscape:groupmode="layer"
     id="layer1"
     transform="translate(277.58571,-142.63452)">
    <g
       id="layer1-7"
       inkscape:label="Layer 1"
       transform="translate(-450.2156,-20.336986)">
      <path
         style="fill:url(#linearGradient4535);fill-opacity:1;stroke-width:0.26458332"
         inkscape:connector-curvature="0"
         d="m 177.65697,162.97151 h -3.70416 c -0.73052,0 -1.32292,0.5924 -1.32292,1.32292 v 3.70416 c 0,0.73052 0.5924,1.32292 1.32292,1.32292 h 3.70416 c 0.73078,0 1.32292,-0.5924 1.32292,-1.32292 v -3.70416 c 0,-0.73052 -0.59214,-1.32292 -1.32292,-1.32292 z m -2.91041,5.02708 h -0.79375 v -2.91041 h 0.79375 z m -0.39688,-3.2459 c -0.25558,0 -0.46302,-0.20903 -0.46302,-0.46673 0,-0.2577 0.20744,-0.46672 0.46302,-0.46672 0.25559,0 0.46302,0.20902 0.46302,0.46672 0,0.2577 -0.20717,0.46673 -0.46302,0.46673 z m 3.57188,3.2459 h -0.79375 v -1.48272 c 0,-0.89112 -1.05834,-0.82365 -1.05834,0 v 1.48272 h -0.79375 v -2.91041 h 0.79375 v 0.46699 c 0.36936,-0.68422 1.85209,-0.73475 1.85209,0.65511 z"
         id="path4518" />
    </g>
  </g>
</svg>
