<svg viewBox="0 0 900 175" xmlns="http://www.w3.org/2000/svg" xmlns:xlink="http://www.w3.org/1999/xlink"
        version="1.1">
        <rect id="background" x="0" y="0" width="900" height="100"></rect>
        <path id="path-1"
            d="M0 135L11.5 137.8C23 140.7 46 146.3 69 149.5C92 152.7 115 153.3 138.2 151.8C161.3 150.3 184.7 146.7 207.8 147.3C231 148 254 153 277 156.8C300 160.7 323 163.3 346 159.7C369 156 392 146 415.2 143.8C438.3 141.7 461.7 147.3 484.8 149.7C508 152 531 151 554 152C577 153 600 156 623 153.8C646 151.7 669 144.3 692.2 144.7C715.3 145 738.7 153 761.8 158.7C785 164.3 808 167.7 831 165.3C854 163 877 155 888.5 151L900 147L900 0L888.5 0C877 0 854 0 831 0C808 0 785 0 761.8 0C738.7 0 715.3 0 692.2 0C669 0 646 0 623 0C600 0 577 0 554 0C531 0 508 0 484.8 0C461.7 0 438.3 0 415.2 0C392 0 369 0 346 0C323 0 300 0 277 0C254 0 231 0 207.8 0C184.7 0 161.3 0 138.2 0C115 0 92 0 69 0C46 0 23 0 11.5 0L0 0Z">
        </path>
        <path id="path-2"
            d="M0 136L11.5 137.5C23 139 46 142 69 139.8C92 137.7 115 130.3 138.2 128C161.3 125.7 184.7 128.3 207.8 131.8C231 135.3 254 139.7 277 138.7C300 137.7 323 131.3 346 131.3C369 131.3 392 137.7 415.2 141.7C438.3 145.7 461.7 147.3 484.8 148.5C508 149.7 531 150.3 554 148.7C577 147 600 143 623 140C646 137 669 135 692.2 133.8C715.3 132.7 738.7 132.3 761.8 134.7C785 137 808 142 831 144.2C854 146.3 877 145.7 888.5 145.3L900 145L900 0L888.5 0C877 0 854 0 831 0C808 0 785 0 761.8 0C738.7 0 715.3 0 692.2 0C669 0 646 0 623 0C600 0 577 0 554 0C531 0 508 0 484.8 0C461.7 0 438.3 0 415.2 0C392 0 369 0 346 0C323 0 300 0 277 0C254 0 231 0 207.8 0C184.7 0 161.3 0 138.2 0C115 0 92 0 69 0C46 0 23 0 11.5 0L0 0Z"
            fill="#f09d0a"></path>
        <path id="path-3"
            d="M0 113L11.5 116.3C23 119.7 46 126.3 69 126C92 125.7 115 118.3 138.2 114.7C161.3 111 184.7 111 207.8 113.3C231 115.7 254 120.3 277 120.5C300 120.7 323 116.3 346 112.8C369 109.3 392 106.7 415.2 108.7C438.3 110.7 461.7 117.3 484.8 122C508 126.7 531 129.3 554 127.8C577 126.3 600 120.7 623 117.8C646 115 669 115 692.2 113.5C715.3 112 738.7 109 761.8 112.2C785 115.3 808 124.7 831 128.7C854 132.7 877 131.3 888.5 130.7L900 130L900 0L888.5 0C877 0 854 0 831 0C808 0 785 0 761.8 0C738.7 0 715.3 0 692.2 0C669 0 646 0 623 0C600 0 577 0 554 0C531 0 508 0 484.8 0C461.7 0 438.3 0 415.2 0C392 0 369 0 346 0C323 0 300 0 277 0C254 0 231 0 207.8 0C184.7 0 161.3 0 138.2 0C115 0 92 0 69 0C46 0 23 0 11.5 0L0 0Z"
            fill="#de820f"></path>
        <path id="path-4"
            d="M0 104L11.5 103.2C23 102.3 46 100.7 69 100.7C92 100.7 115 102.3 138.2 102.5C161.3 102.7 184.7 101.3 207.8 101.3C231 101.3 254 102.7 277 104.7C300 106.7 323 109.3 346 106.5C369 103.7 392 95.3 415.2 92.8C438.3 90.3 461.7 93.7 484.8 98C508 102.3 531 107.7 554 109.8C577 112 600 111 623 110.3C646 109.7 669 109.3 692.2 109.3C715.3 109.3 738.7 109.7 761.8 106.7C785 103.7 808 97.3 831 96.7C854 96 877 101 888.5 103.5L900 106L900 0L888.5 0C877 0 854 0 831 0C808 0 785 0 761.8 0C738.7 0 715.3 0 692.2 0C669 0 646 0 623 0C600 0 577 0 554 0C531 0 508 0 484.8 0C461.7 0 438.3 0 415.2 0C392 0 369 0 346 0C323 0 300 0 277 0C254 0 231 0 207.8 0C184.7 0 161.3 0 138.2 0C115 0 92 0 69 0C46 0 23 0 11.5 0L0 0Z"
            fill="#ca6813"></path>
        <path id="path-5"
            d="M0 88L11.5 88.7C23 89.3 46 90.7 69 89.7C92 88.7 115 85.3 138.2 82.2C161.3 79 184.7 76 207.8 76.3C231 76.7 254 80.3 277 81.8C300 83.3 323 82.7 346 82.8C369 83 392 84 415.2 83C438.3 82 461.7 79 484.8 78.3C508 77.7 531 79.3 554 81.3C577 83.3 600 85.7 623 84.7C646 83.7 669 79.3 692.2 76.2C715.3 73 738.7 71 761.8 71C785 71 808 73 831 74.8C854 76.7 877 78.3 888.5 79.2L900 80L900 0L888.5 0C877 0 854 0 831 0C808 0 785 0 761.8 0C738.7 0 715.3 0 692.2 0C669 0 646 0 623 0C600 0 577 0 554 0C531 0 508 0 484.8 0C461.7 0 438.3 0 415.2 0C392 0 369 0 346 0C323 0 300 0 277 0C254 0 231 0 207.8 0C184.7 0 161.3 0 138.2 0C115 0 92 0 69 0C46 0 23 0 11.5 0L0 0Z"
            fill="#b44f15"></path>
        <path id="path-6"
            d="M0 63L11.5 63.2C23 63.3 46 63.7 69 65C92 66.3 115 68.7 138.2 66.5C161.3 64.3 184.7 57.7 207.8 55.5C231 53.3 254 55.7 277 58.3C300 61 323 64 346 64.3C369 64.7 392 62.3 415.2 60.8C438.3 59.3 461.7 58.7 484.8 57.7C508 56.7 531 55.3 554 55.3C577 55.3 600 56.7 623 58.3C646 60 669 62 692.2 61.8C715.3 61.7 738.7 59.3 761.8 58.5C785 57.7 808 58.3 831 57.2C854 56 877 53 888.5 51.5L900 50L900 0L888.5 0C877 0 854 0 831 0C808 0 785 0 761.8 0C738.7 0 715.3 0 692.2 0C669 0 646 0 623 0C600 0 577 0 554 0C531 0 508 0 484.8 0C461.7 0 438.3 0 415.2 0C392 0 369 0 346 0C323 0 300 0 277 0C254 0 231 0 207.8 0C184.7 0 161.3 0 138.2 0C115 0 92 0 69 0C46 0 23 0 11.5 0L0 0Z"
            fill="#9c3715"></path>
        <path id="path-7"
            d="M0 48L11.5 47.3C23 46.7 46 45.3 69 45.3C92 45.3 115 46.7 138.2 46.8C161.3 47 184.7 46 207.8 45.2C231 44.3 254 43.7 277 44.7C300 45.7 323 48.3 346 48.5C369 48.7 392 46.3 415.2 44.5C438.3 42.7 461.7 41.3 484.8 42.5C508 43.7 531 47.3 554 47.7C577 48 600 45 623 42.8C646 40.7 669 39.3 692.2 38.3C715.3 37.3 738.7 36.7 761.8 36C785 35.3 808 34.7 831 35.3C854 36 877 38 888.5 39L900 40L900 0L888.5 0C877 0 854 0 831 0C808 0 785 0 761.8 0C738.7 0 715.3 0 692.2 0C669 0 646 0 623 0C600 0 577 0 554 0C531 0 508 0 484.8 0C461.7 0 438.3 0 415.2 0C392 0 369 0 346 0C323 0 300 0 277 0C254 0 231 0 207.8 0C184.7 0 161.3 0 138.2 0C115 0 92 0 69 0C46 0 23 0 11.5 0L0 0Z"
            fill="#841f13"></path>
        <path id="path-8"
            d="M0 31L11.5 30.7C23 30.3 46 29.7 69 27.3C92 25 115 21 138.2 20.8C161.3 20.7 184.7 24.3 207.8 26.2C231 28 254 28 277 27.5C300 27 323 26 346 24.5C369 23 392 21 415.2 20.2C438.3 19.3 461.7 19.7 484.8 19.3C508 19 531 18 554 18.8C577 19.7 600 22.3 623 24.5C646 26.7 669 28.3 692.2 28.2C715.3 28 738.7 26 761.8 24.7C785 23.3 808 22.7 831 21.8C854 21 877 20 888.5 19.5L900 19L900 0L888.5 0C877 0 854 0 831 0C808 0 785 0 761.8 0C738.7 0 715.3 0 692.2 0C669 0 646 0 623 0C600 0 577 0 554 0C531 0 508 0 484.8 0C461.7 0 438.3 0 415.2 0C392 0 369 0 346 0C323 0 300 0 277 0C254 0 231 0 207.8 0C184.7 0 161.3 0 138.2 0C115 0 92 0 69 0C46 0 23 0 11.5 0L0 0Z"
            fill="#6a040f"></path>
    </svg>